<?xml version="1.0" encoding="UTF-8"?>
<svg id="Calque_2" data-name="Calque 2" xmlns="http://www.w3.org/2000/svg" viewBox="0 0 434.86 431.82">
  <defs>
    <style>
      .cls-1 {
        fill: #ff4500;
        stroke: #fff;
        stroke-miterlimit: 10;
        stroke-width: 20px;
      }

      .cls-2 {
        fill: #fefefe;
      }
    </style>
  </defs>
  <g id="Calque_1-2" data-name="Calque 1">
    <g>
      <path class="cls-1" d="M217.43,418.83s207.43-167.14,207.43-286.18c0-164.26-414.86-162.8-414.86,0,0,108.81,207.43,286.18,207.43,286.18Z"/>
      <g>
        <path class="cls-2" d="M321.5,143.25c-1.53-.64-3.1-1.12-4.68-1.48l-40.49,39.1c.12.71.22,1.42.25,2.16.5,10.06-7.44,18.55-18.06,18.59l.06-.7c-.94,0-1.86-.1-2.77-.24l-35.57,34.35c12.74.09,25.02-3.91,35.32-11.11,2.01-1.4,4.77-.78,6.25.67,1.71,1.67,1.74,4.3.31,6.11-.09.11-.4.06-.47-.01-12.66,9.17-28.3,13.9-44.2,13.25-2.14.09-4.27.07-6.4-.04l-21.02,20.3c31.5,5.81,67.21,1.67,94.82-13.81,20.26-11.36,37.27-29.76,37.75-53.45.06-2.85.26-5.49,0-8.32,9-4.37,14.75-13.33,14.51-23.07-.24-9.86-6.66-18.55-15.62-22.31Z"/>
        <path class="cls-2" d="M113.03,188.64c-.29,2.79-.08,5.47-.02,8.3.43,19.88,12.4,36.07,28.43,47.55,2.15,1.54,4.38,2.99,6.66,4.36l24.91-24.06c.06-.08.12-.17.19-.24.22-.24.46-.45.73-.64l92.25-89.09c-13.49-4.94-27.82-7.69-42.57-8.02l11.65-54.07,38.41,7.79c.94,8.52,8.21,15,16.85,15.48,8.8.49,16.63-5.31,18.57-13.44,2-8.44-2.67-16.92-10.82-20.05-8.38-3.22-17.78-.04-22.29,7.38l-44.37-8.58c-2.87-.35-5.63,1.31-6.24,4.1l-13.34,60.34c-25.06.4-49.28,7.77-70.06,21.32-11.9-10.7-30.74-8.55-39.72,4.27-9.07,12.95-4.01,30.63,10.77,37.28ZM175.4,165.56c9.91,0,17.94,7.76,17.94,17.33s-8.03,17.33-17.94,17.33-17.94-7.76-17.94-17.33,8.03-17.33,17.94-17.33Z"/>
      </g>
    </g>
  </g>
</svg>